<?xml version="1.0" encoding="iso-8859-1"?>
<!-- Generator: Adobe Illustrator 19.0.0, SVG Export Plug-In . SVG Version: 6.00 Build 0)  -->
<svg version="1.1" id="Layer_1" xmlns="http://www.w3.org/2000/svg" xmlns:xlink="http://www.w3.org/1999/xlink" x="0px" y="0px"
	 viewBox="0 0 512 512" style="enable-background:new 0 0 512 512;" xml:space="preserve">
<g>
	<g>
		<path d="M256,0C154.734,0,72.348,82.386,72.348,183.652c0,30.06,7.211,59.669,21.802,86.864l78.372,161.837v62.951
			c0,9.22,7.475,16.696,16.696,16.696h133.565c9.22,0,16.696-7.475,16.696-16.696v-62.951l78.372-161.837
			c14.579-27.172,21.802-56.777,21.802-86.864C439.652,82.386,357.266,0,256,0z M272.696,36.555
			c37.574,14.367,66.783,75.903,66.783,147.098s-29.208,132.73-66.783,147.098V36.555z M239.304,36.555V330.75
			c-37.574-14.367-66.783-75.903-66.783-147.098S201.73,50.922,239.304,36.555z M123.715,254.952
			c-4.944-10.209-17.976-33.855-17.976-71.299c0-50.021,24.575-94.404,62.278-121.731c-18.656,33.443-28.887,76.403-28.887,121.731
			c0,45.409,10.268,88.439,28.986,121.907C149.943,292.464,134.668,275.277,123.715,254.952z M167,344.334
			c21.982,12.17,46.536,19.875,72.306,22.212v45.28h-39.622L167,344.334z M306.087,478.609H205.913v-33.391h100.174V478.609z
			 M312.317,411.826h-39.621v-45.28c25.768-2.337,50.323-10.042,72.305-22.212L312.317,411.826z M388.286,254.952
			c-10.953,20.324-26.229,37.513-44.401,50.608c18.717-33.468,28.985-76.498,28.985-121.907c0-45.329-10.231-88.289-28.887-121.731
			c37.703,27.327,62.278,71.71,62.278,121.731C406.261,216.323,396.996,236.965,388.286,254.952z"/>
	</g>
</g>
<g>
</g>
<g>
</g>
<g>
</g>
<g>
</g>
<g>
</g>
<g>
</g>
<g>
</g>
<g>
</g>
<g>
</g>
<g>
</g>
<g>
</g>
<g>
</g>
<g>
</g>
<g>
</g>
<g>
</g>
</svg>
