<svg xmlns="http://www.w3.org/2000/svg" viewBox="0 0 849.34 490.55"><defs><style>.cls-1,.cls-4{fill:#fff;}.cls-1{stroke:#fff;stroke-miterlimit:10;stroke-width:2px;}.cls-2{fill:#687a6e;}.cls-3{fill:#e18e6e;}</style></defs><g id="Layer_2" data-name="Layer 2"><g id="Layer_1-2" data-name="Layer 1"><path class="cls-1" d="M199.63,344c1.06-.27-1.69-1.44-2.57-2.12h60.59l-6.09-88.31h12.19c15.18,11.27,30.44,22.82,45.16,32.23,3.09,2,6.23,4,8.65,6.75,1.76,2,3.21,4.47,5.63,5.62,1.55.73,3.32.83,4.93,1.4a17.77,17.77,0,0,1,5.7,3.9l8.92,8,.78.22c0-.25,0-.52,0-.77,9.7-6.57,21.57-13,31.27-19.53L400,274.29c1.88-1.28,3.88-2.68,4.72-4.8,2.94-7.33-10-10.34-13.23-14.27a13.47,13.47,0,0,1-2.3-5.8c-2.64-12.37-2.82-25.12-3.37-37.76-.45-10.36-1.66-21.82-9.32-28.81-3.13-2.86-7.63-5.92-6.61-10,.41-1.69,1.73-3,2.77-4.37,5.39-7.22,4.11-17.82,1.95-26.57a6.58,6.58,0,0,1-4.16,1.6c-2.43-.08-4.39-2-6.74-2.64-5.47-1.42-10.71,4.59-16.25,3.51-3.87-.76-7.16-4.88-10.93-3.73-2.14.65-3.48,2.85-5.55,3.71-3.51,1.46-7.39-1.4-11.18-1.05-6.18.56-10.17,9.31-16.22,7.93-1.43-.33-2.74-1.24-4.2-1.21-4.28.06-4.78,6.87-8.55,8.88-2.29,1.22-5.12.31-7.38-1s-4.45-2.89-7-3.14c-3.79-.36-8.31,2.17-11-.51-.92-.92-1.32-2.26-2.19-3.22-2.32-2.54-6.93-1.07-8.68,1.89s-1.71,7.36-3,10.54c-2.62,6.4-12.19,7.05-15.6,13.06-1.31,2.3-1.53,5.12-3,7.32-2.17,3.23-6.77,4.67-7.89,8.4-1.27,4.28,2.95,8.49,2.56,13-.34,3.9-4.55,7.23-6.85,10.11-3,3.74-6.74,6.5-11.68,6.79-3.47.2-7.42-.64-10,1.63-3.85,3.34-1.61,10.82-5.81,13.72-2.59,1.79-6.3.74-9.12,2.15-2.61,1.3-3.81,4.38-4.17,7.27s-.11,5.87-.87,8.68c-1.22,4.5-5.5,4.7-6.87,8.76-1.15,3.4-2.11,7.05-4.61,9.62s-6.31,4-7.39,7.32c-.88,2.72.49,5.66,2.23,7.93s3.92,4.27,5,6.9c2.37,5.6-2.18,10.53-1.54,16.49.69,6.51,1.42,13-1.21,19.24-2.17,5.17-9.73,7.66-9.19,14.09C155.53,345.91,151.53,356.4,199.63,344Z"/><path class="cls-1" d="M842.87,206c1,.53,2.09,1.05,3.11,1.6l.15.05C843.79,206.26,842.91,205.88,842.87,206Z"/><path class="cls-1" d="M746.45,373.24c-1.4.81-2.24,2.3-3.41,3.41a34.56,34.56,0,0,1,11,.44c-.06-.22-.1-.43-.18-.64C752.76,373.59,749.09,371.72,746.45,373.24Z"/><path class="cls-1" d="M364.76,158.68c1.33,6.63,3.21,13.12,4.76,19.71,2.47,10.47,3.23,21.16,4.42,31.81.15,1,.31,2,.47,3,8.4-1.17,15.15-1.72,24.2.75a59.45,59.45,0,0,1,8.76,3.14c.3-.63.58-1.26.87-1.88a256.47,256.47,0,0,0,10.51-35.64c-4.23.69-9,2.48-12.14.09l-12.38-9.36c-1.47-1.11-3.12-2.7-2.63-4.48.7-2.52,4.7-2.33,6.11-4.53,1.26-2-.25-4.5-1.8-6.24s-3.36-3.89-2.64-6.11c.58-1.8,2.72-3.55,1.65-5.1s-3.93.16-5.89-.49c-2.12-.71-2.15-3.8-3.77-5.34-2.06-2-5.49-.55-7.63,1.32s-4.32,4.27-7.16,4.17c-2.43-.08-4.39-2-6.74-2.64a6.93,6.93,0,0,0-1.56-.19,42.32,42.32,0,0,1,2.41,13.45C364.6,155.64,364.67,157.16,364.76,158.68Z"/><path class="cls-1" d="M759.1,299.52a41.27,41.27,0,0,1-16.45,3.58,40.23,40.23,0,0,1-8.52-.9,42.05,42.05,0,0,1-20.07,5.37,40.32,40.32,0,0,1-10.42-1.37c-.57.66-1.15,1.3-1.75,1.89a42.17,42.17,0,0,1-28.92,12h-.27c-1,.21-2.07.39-3.12.51a8.52,8.52,0,0,0,2.9.71,39.18,39.18,0,0,1,10.81,25.83c.07,3-.19,6,.61,8.92,2.1,7.64,7.73,5.43,13.44,4.21a29.92,29.92,0,0,1,8.15-.74c2.71.22,5.3,1.83,8,1.52,3.64-.4,5.92-3.52,9-5.09,2.48-1.24,5.14-2,7.61-3.29,5.52-2.95,10.4-8.37,16.78-8.81,3.76-.26,7.89-.06,10.83-2.41,2.26-1.8,3.27-4.71,4.86-7.13a16.77,16.77,0,0,1,8.35-6.48,10.51,10.51,0,0,1,1.78-.44A43.81,43.81,0,0,1,759.1,299.52Z"/><path class="cls-1" d="M754,377.09c-.06-.22-.1-.43-.18-.64-1-2.86-4.72-4.73-7.36-3.21-1.4.81-2.24,2.3-3.41,3.41A34.56,34.56,0,0,1,754,377.09Z"/><path class="cls-1" d="M734.28,378.89a50.55,50.55,0,0,0-16.16,3.26c-2.22.84-5.41,3.3-7.77,3.15-2.57-.17-4.13-2.89-7.13-2.27-1.43.3-2.62,1.24-4,1.86-4.55,2.1-10.17-.07-13.54-3.78s-4-7.23-6.1-11.81a57.56,57.56,0,0,0-20.91-24.42c-3.88-2.53-8.22-4.74-10.77-8.6-4.13-6.23-2.62-15.34-7.74-20.78-3.62-3.84-9.73-4.8-12.83-9.06-2.7-3.7-2.32-8.7-2.09-13.27.19-3.79,0-8-2.07-11L526.6,283a59.45,59.45,0,0,1,8.82,24.15,72.6,72.6,0,0,1-1.76,28.31c-2.11,8.28-5.51,16.1-7.59,24.35,0,.38,0,.77,0,1.15a81.24,81.24,0,0,0,2.32,7.95,71.67,71.67,0,0,1,9.19-24.64c9.88-15.95,28.14-22.91,46.2-18.8,17.65,4,29.67,22.12,30,39.45,0,.81.07,1.62.12,2.43,1.1,6,2.38,12,3.2,18.14.16,1.14.29,2.28.43,3.42a41.71,41.71,0,0,1,15.54,9.62c7.67,7.64,15.46,15.17,22.85,23.08,4.7-3.08,9.39-6.14,14.11-9.06a440.94,440.94,0,0,1,65.5-33.72Z"/><path class="cls-1" d="M444.42,266.87l66.44,38.27v-3.67l9.67-1.86-1-16.54L513.93,187A24.94,24.94,0,0,0,509,185.9c-4.9-.54-10.24.51-14.49-2-2.5-1.46-4.31-4-7-5.09-3.89-1.53-8.25.51-11.68,2.9-3.62,2.52-7.25,7.06-5.07,10.89.82,1.44,2.31,2.37,3.25,3.73,2.49,3.58,0,9-4.14,10.52s-8.8-.32-12-3.31-5.44-7-9.55-7.77c-4.49-.82-10,2.64-13.21-.59-2.45-2.46-1.13-6.68-2.25-10-1.53-4.46-7.07-6-11.77-5.93s-10.76,3.18-14.51.34l-3.95-3-.8.49a6.44,6.44,0,0,1-3.51,8.84c-1.68.53-3.58.34-5.15,1.14-2,1-3,3.35-3.28,5.58s-.14,4.51-.65,6.69-1.87,4.24-4,4.76c.27,2.51.42,5,.53,7.5.55,12.64.73,25.39,3.37,37.76a13.47,13.47,0,0,0,2.3,5.8c3.17,3.91,16,6.9,13.29,14.11l.45.16,26.68,3.93C436.26,271.61,440.09,268.67,444.42,266.87Z"/><path class="cls-1" d="M595.74,372.67c-.11,2.33-.91,4.73-.16,6.94.86,2.55,7,5.28,9.43,6.49h0a27.76,27.76,0,0,1,1.48-2.68c5.78-9.39,11.31-19.14,17.09-28.54-1.63-4.19-3.27-8.88-1.59-13.05.83-2.06,2.4-3.78,3-5.91.71-2.35.19-4.95.94-7.29.95-3,3.73-4.94,6.34-6.68,3.12-2.07,4.78-4.38,7.9-6.45-3.62-3.84-9.73-4.8-12.83-9.06-2.7-3.7-2.32-8.7-2.09-13.27.19-3.79,0-8-2.07-11l-103.66.94,1,16.54-9.67,1.86V331c0,2.54,1.41,9.74-1.22,10.57-1.09.35-2.29.26-3.33.71-2.4,1.06-1.75,3.51-2,5.55a10.83,10.83,0,0,1-3.81,7.07A27.94,27.94,0,0,0,497,357.7c-1,1.11-1.53,2.86-.71,4.11,1.36,2.06,5.51,1.76,5.64,4.22.07,1.27-1.18,2.22-1.5,3.46-.37,1.46.62,2.91,1.71,3.95,2.69,2.59,2.56,4.26,1.19,5.55h0c-.72,2.26.52,5.91,2.56,7.14a15.74,15.74,0,0,1,2.47,1.4c1.91,1.71,1.76,5.66,4.29,6,1.63.23,2.87-1.41,3.51-2.92s1.22-3.28,2.72-3.93c2-.85,4.09.75,5.36,2.45s2.43,3.76,4.47,4.36c2.31.67,4.65-.85,7-1.19,2.68-.38,5.31.75,7.88,1.57s5.59,1.3,7.84-.2c3.2-2.14,3.94-7.68,7.78-8.09,3.24-.35,5.23,3.38,8,5,5.12,3,9.13-1.15,12.27-4.54,3.63-3.92,7.29-7.42,5.29-13.4a14.57,14.57,0,0,1-1.12-3.77,5,5,0,0,1,3.95-4.85,6.44,6.44,0,0,1,6.08,2.25A9.2,9.2,0,0,1,595.74,372.67Z"/><path class="cls-1" d="M676.61,444.35c2.64-1.75,3.38-5.47,6-7.26,4.24-2.92,10.24.93,15.11-.73,3.59-1.22,5.49-5,7.55-8.18a36.92,36.92,0,0,1,13.39-12.35,19.61,19.61,0,0,0,4.27-2.69,4.81,4.81,0,0,0,1.61-4.56,4.91,4.91,0,0,0-3.91-3.15,25.14,25.14,0,0,0-5.28-.12c-5,.05-9.92-1.53-14.71-3.1l-9.22-3a13.16,13.16,0,0,1-4.14-1.92c-1.81-1.43-2.73-3.68-3.57-5.83a27.21,27.21,0,0,1-2-7c-.25-2.4,0-5,1.57-6.83v0h0c-1.42-2.55-2.2-5.19-3.61-8.33a57.56,57.56,0,0,0-20.91-24.42c-3.88-2.53-8.22-4.74-10.77-8.6-4.13-6.23-2.62-15.34-7.74-20.78-3.12,2.07-4.78,4.38-7.9,6.45-2.61,1.74-5.39,3.69-6.34,6.68-.75,2.34-.23,4.94-.94,7.29-.64,2.13-2.21,3.85-3,5.91-1.68,4.17,0,8.86,1.59,13.05-5.78,9.4-11.31,19.15-17.09,28.54-1.46,2.38-3,5.13-2.24,7.82.68,2.45,3.15,4.44,2.77,6.95-.75,5-10.23,2.91-12.24,7.58-.93,2.16.43,4.72,2.34,6.12s4.24,2,6.37,3a19,19,0,0,1,7.74,7.19c2.11,3.28.86,6,2.27,9.36.89,2.14,3.63,3.67,5.61,2.45,1.09-.67,1.89-2.07,3.16-2s1.9,1.55,1.94,2.79-.23,2.57.31,3.69c.76,1.56,2.78,2,4.51,1.9s3.46-.67,5.17-.39c2.48.41,4.34,2.42,6.54,3.64,5.14,2.84,11.49,1.11,17.15-.47S672,440.75,676.61,444.35Z"/><path class="cls-1" d="M621.76,280.43c-3.11-2.69-8.08-2.87-10.53-6.17-2.19-3-1.39-7.05-1.74-10.72-.48-4.82-3.08-9.15-5.82-13.15s-5.74-8-7.17-12.59c-1.73-5.59.36-15.86,7.39-13.14a14.18,14.18,0,0,1-4.29-11.87c.48-4.31,1.5-8.77.16-12.89a11.83,11.83,0,0,0-5.88-6.79c-2,1.66-5.57,2.56-7,.9-4,2.34-9,1.12-13.32-.41s-9-3.36-13.38-2c-3.52,1.07-6.17,4-9.47,5.61-6.67,3.28-14.72.84-21.32-2.59-5.08-2.64-10-5.88-15.44-7.6l5.63,96.08,103.7-.94A8.59,8.59,0,0,0,621.76,280.43Z"/><path class="cls-1" d="M784.72,264.19c.92-2.57.58-5.39.87-8.1s1.55-5.61,4.1-6.42a4.8,4.8,0,0,0-.63-2.3c-1.28-2-4.46-2-6.36-.53s-2.82,3.83-3.62,6.09-1.62,4.63-3.41,6.22c-4.26,3.76-16.79,2.54-22.11,1.32s-12.56-5.68-15.51-10.53c-2.8-4.6-.72-11.3-4.28-15.34-2-2.23-5-2.83-7.17-4.73-1.07-.93-1.56-2.37-2.51-3.22s-2.65-.06-3.3-2a14.72,14.72,0,0,1-.25-3.88c-.09-1.29-.72-2.76-2-3-2.35-.48-3.65,2.39-6.23,1.37-1.2-.48-3.09-3.31-4.07-4.35a14,14,0,0,1-1.89-2.47c-4.4,1.55-9,3-13.6,2.4-3.7-.5-7.07-2.32-10.34-4.11l-7.11-3.87c-7.54-4.12-15.2-8.31-21.32-14.35-2.45-2.41-4.74-5.17-7.93-6.45-6-2.43-12.65,1.29-18.09,4.86-1.46,1-3.1,2.21-3.1,4,0,1.59,1.35,2.79,2.23,4.11,2.63,4,.33,10.2-4.24,11.51-1.94.55-4.18.09-6,1.07-1.6.87-2.53,3-4.48,3.27-1.42.2-2.7-.91-4.12-1a4.23,4.23,0,0,0-3.83,2.36c-.77,1.38-.36,7.07-.55,8.65.22.09.46.19.69.3,4.36,2.12,8.83,6.93,11.37,11,3.6,5.82,6.16,12.37,10.8,17.41,5.35,5.81,13.53,9.81,15.5,17.47,1.7,6.61-1.71,14.71,2.75,19.86,2.13,2.45,5.48,3.41,8,5.41,4.26,3.33,5.74,9,7.76,14s6.28,10.83,11.68,11.14a39,39,0,0,1,8.9,14.92l.28.21c1.62-4.86,1.84-10.26,7.89-11.34,3.69-.66,7.43.58,11,1.79,2.88,1,6.09,2.28,7.21,5.12.55,1.39.49,2.95,1,4.37s1.89,2.76,3.32,2.31,1.79-2.24,1.92-3.71c.31-3.7.5-7.46,1.6-11s3.26-6.94,6.56-8.64c5.58-2.87,12.56-.21,18.55-2.1,3.73-1.18,6.68-4,10.12-5.87,6.91-3.75,15.27-3.42,22.74-5.86a14.09,14.09,0,0,0,5.65-3.13c4.51-4.47,2.87-12.2,1.88-17.67-.55-3.06-1.29-6.26-.31-9.21C781.63,268.85,783.78,266.8,784.72,264.19Z"/><path class="cls-1" d="M782.7,246.84c-1.9,1.46-2.82,3.83-3.62,6.09s-1.62,4.63-3.41,6.22c-4.26,3.76-16.79,2.54-22.11,1.32a24.32,24.32,0,0,1-4.89-1.78,13.2,13.2,0,0,1,1.64,4.42c0,1.74-.43,3.49-.23,5.22a4.26,4.26,0,0,0,2,3.28c1.37.68,2.76-.14,4.13-.43,2.77-.59,4.76.53,6.85,2.18a7.57,7.57,0,0,0,7.37.82,17.73,17.73,0,0,1,9.94-1.11h0a9.1,9.1,0,0,1,.36-1.59c.88-2.63,3-4.68,4-7.29s.58-5.39.87-8.1,1.55-5.61,4.1-6.42a4.8,4.8,0,0,0-.63-2.3C787.78,245.35,784.6,245.39,782.7,246.84Z"/><path class="cls-1" d="M627.56,179.49c-4.62,2.85-13.63,7.11-17.16.3a9.19,9.19,0,0,0-1.41-2.51c-1.2-1.15-3.23-.91-4.59,0a13.07,13.07,0,0,0-3.12,3.83c-.9,1.4-3.7,4.69-5.24,5.3a10.75,10.75,0,0,1-1.23,5.62,4.27,4.27,0,0,1-.93,1,11.83,11.83,0,0,1,5.88,6.79c1.34,4.12.32,8.58-.16,12.89a14.18,14.18,0,0,0,4.29,11.87h0c.19-1.58-.22-7.27.55-8.65a4.23,4.23,0,0,1,3.83-2.36c1.42.14,2.7,1.25,4.12,1,2-.27,2.88-2.4,4.48-3.27,1.8-1,4-.52,6-1.07,4.57-1.31,6.87-7.54,4.24-11.51-.88-1.32-2.22-2.52-2.23-4.11,0-1.76,1.64-3,3.1-4,5.44-3.57,12-7.29,18.09-4.86,3.19,1.28,5.48,4,7.93,6.45,6.12,6,13.78,10.23,21.32,14.35l7.11,3.87c3.27,1.79,6.64,3.61,10.34,4.11,4.61.63,9.2-.85,13.6-2.4-1.78-3-1.79-6.37,2.24-9a14.11,14.11,0,0,1,6.22-2c0-4-2.67-4.61-4.44-7.94-1.56-2.93.82-6.9-.16-10.06-1.28-4.12-6.32-5.52-10.59-6.05s-9.26-1.24-11.38-5c-1.55-2.74-.94-6.19.18-9.13s2.74-5.75,3.13-8.88-.91-6.78-3.89-7.8c-.87-.3-1.82-.35-2.7-.63-2.85-.88-4.42-3.82-6-6.33-2.18-3.4-5.1-6.54-8.92-7.86s-8.63-.31-10.8,3.1c-1.07,1.67-1.46,3.8-2.93,5.14-2.14,2-6.29,2.05-6.84,4.91-.26,1.33.5,2.63,1,3.89,2,5.18-.26,11.12-3.65,15.53C641.78,170.69,634.59,175.16,627.56,179.49Z"/><path class="cls-1" d="M628,190.77a40.75,40.75,0,0,1,9.15-4.79l0-.53a19.17,19.17,0,0,0-2.73-10.06l-.18-.1c-2.17,1.45-4.39,2.84-6.6,4.2-4.3,2.65-12.39,6.51-16.34,1.55,1.5,2.81,2.13,7.32.67,9.68-1.69,2.73-5,4.39-5.95,7.48-.72,2.49.39,5.08,1.32,7.49s-.18,6.62-1.55,8.82a3.62,3.62,0,0,1,2.56-.86c1.42.14,2.7,1.25,4.12,1,2-.27,2.88-2.4,4.48-3.27,1.8-1,4-.52,6-1.07,4.57-1.31,6.87-7.54,4.24-11.51-.88-1.32-2.22-2.52-2.23-4.11C624.86,193,626.5,191.73,628,190.77Z"/><path class="cls-1" d="M655.53,134.47c-1.31.82-2.35,2.08-3.79,2.63-4.18,1.58-8.32-3.62-12.74-3-3.58.53-5.91,4.71-9.53,4.84-3,.11-5.67-2.74-8.66-2.3-2.54.39-4.07,2.91-5.7,4.89s-5.39,3.37-7.37,1.74v0a15.54,15.54,0,0,1-2,4.09c-1,1.69-2,3.57-1.82,5.53s1.49,3.49,2.35,5.2a12.74,12.74,0,0,1-4.08,15.74c-1.48,1-3.19,1.71-4.37,3.05-1.74,2-1.89,4.86-1.84,7.5,0,.69,0,1.38,0,2.08,1.54-.61,4.34-3.9,5.24-5.3a13.07,13.07,0,0,1,3.12-3.83c1.36-.95,3.39-1.19,4.59,0a9.19,9.19,0,0,1,1.41,2.51c3.53,6.81,12.54,2.55,17.16-.3,7-4.33,14.22-8.8,19.24-15.35,3.39-4.41,5.69-10.35,3.65-15.53-.51-1.26-1.27-2.56-1-3.89.55-2.86,4.7-2.94,6.84-4.91,1.47-1.34,1.86-3.47,2.93-5.14.06-.09.13-.16.19-.24C658.45,133.52,656.71,133.74,655.53,134.47Z"/><path class="cls-1" d="M818.76,272.38c-3.12-5-7.28-12.62-12.65-10.23A11.65,11.65,0,0,1,789.73,252c0-.93,0-1.91-.1-2.83,0,.18,0,.36.06.54-2.55.81-3.81,3.74-4.1,6.42s0,5.53-.87,8.1-3.09,4.66-4,7.29a7.13,7.13,0,0,0-.23.88c0,.24-.09.48-.13.71-.35,2.49.21,5.1.67,7.62,1,5.47,2.63,13.2-1.88,17.67a14.09,14.09,0,0,1-5.65,3.13c-5.28,1.72-11,2.07-16.35,3.45a1.42,1.42,0,0,0,0,.2c-.48,2.71-.91,5.73.61,8s4.59,3.29,5.53,5.82c.76,2.06-.59,4.44.2,6.37.63,1.56,3.06,3.13,4.5,3.84l.06,0a17.7,17.7,0,0,1,3-1.4c3.49-1.26,7,0,10.32-.95,6-1.7,5.3-9.91,9.69-13.35,3.84-3,10.1-1.48,13.44-5,4.53-4.77-.71-13.69,3.35-18.88,2.85-3.63,8.16-3.17,11.37-6.17C822.81,280.05,820.93,275.84,818.76,272.38Z"/><path class="cls-1" d="M743.67,415.34c4.06-4.56,6.71-9.32,7.36-15.51.62-5.93-3.28-9.68.86-14.85,1.91-2.38,3-5.67,1.92-8.53s-4.72-4.73-7.36-3.21c-1.55.89-2.4,2.62-3.78,3.75-2.26,1.85-5.47,1.79-8.39,1.9a50.55,50.55,0,0,0-16.16,3.26c-2.22.84-5.41,3.3-7.77,3.15-2.57-.17-4.13-2.89-7.13-2.27-1.43.3-2.62,1.24-4,1.86-4.55,2.1-10.17-.07-13.54-3.78a18.39,18.39,0,0,1-2.49-3.49v0c-1.57,1.84-1.82,4.43-1.57,6.83a27.21,27.21,0,0,0,2,7c.84,2.15,1.76,4.4,3.57,5.83a13.16,13.16,0,0,0,4.14,1.92l9.22,3c4.79,1.57,9.68,3.15,14.71,3.1a25.14,25.14,0,0,1,5.28.12,4.91,4.91,0,0,1,3.91,3.15,4.81,4.81,0,0,1-1.61,4.56,19.61,19.61,0,0,1-4.27,2.69,36.92,36.92,0,0,0-13.39,12.35c-2.06,3.18-4,7-7.55,8.18-4.87,1.66-10.87-2.19-15.11.73-2.6,1.79-3.34,5.51-6,7.26-2.85,1.9-7,.88-9.72,3-2.54,1.94-2.7,5.65-2.62,8.85.11,5.12.24,10.23.34,15.34.06,3,1.25,6.21,1,9.23-.18,2.47-1.39,4.58.59,6.83.59.66,2.49,1.36,4.5,1.85,2.64-3.85,4.58-8.2,7.69-11.7A70.28,70.28,0,0,1,693,465.8c8.34-5.37,17.28-10,24.67-16.58a58.12,58.12,0,0,0,15.57-22.81C735.46,420.46,739.81,419.69,743.67,415.34Z"/><path class="cls-1" d="M404.74,269.49c2.94-7.33-10-10.34-13.23-14.27a13.47,13.47,0,0,1-2.3-5.8c-2.64-12.37-2.82-25.12-3.37-37.76-.45-10.36-1.66-21.82-9.32-28.81-3.13-2.86-7.63-5.92-6.61-10,.41-1.69,1.73-3,2.77-4.37,5.39-7.22,4.11-17.82,1.95-26.56h0a6.58,6.58,0,0,1-4.16,1.6c-2.43-.08-4.39-2-6.74-2.64-5.47-1.42-10.71,4.59-16.25,3.51-3.87-.76-7.16-4.88-10.93-3.73-2.14.65-3.48,2.85-5.55,3.71-3.51,1.46-7.39-1.4-11.18-1.05-6.18.56-10.17,9.31-16.22,7.93-1.43-.33-2.74-1.24-4.2-1.21-4.28.06-4.78,6.87-8.55,8.88-2.29,1.22-5.12.31-7.38-1s-4.45-2.89-7-3.14c-3.79-.36-8.31,2.17-11-.51-.92-.92-1.32-2.26-2.19-3.22-2.32-2.54-6.93-1.07-8.68,1.89s-1.71,7.36-3,10.54c-2.62,6.4-12.19,7.05-15.6,13.06-1.31,2.3-1.53,5.12-3,7.32-2.17,3.23-6.77,4.67-7.89,8.4-1.27,4.28,2.95,8.49,2.56,13-.34,3.9-4.55,7.23-6.85,10.11-3,3.74-6.74,6.5-11.68,6.79-3.47.2-7.42-.64-10,1.63-1.71,1.49-2.22,3.8-2.63,6.16l33.12-.43C255.43,246,283,269.23,308.91,285.79c3.09,2,6.23,4,8.65,6.75,1.76,2,3.21,4.47,5.63,5.62,1.55.73,3.32.83,4.93,1.4a17.77,17.77,0,0,1,5.7,3.9l8.92,8,.78.22c0-.25,0-.52,0-.77,9.7-6.57,21.57-13,31.27-19.53L400,274.29C401.91,273,403.9,271.61,404.74,269.49Z"/><path class="cls-1" d="M295.94,190.13c-3.25,1.39-5.77-3.74-9.27-4.12-6.7-.74-5.05,10.79-7.75,14.12a10.49,10.49,0,0,1-6.29,3.54,12.61,12.61,0,0,0-6.07,2.83c-3.31,2.64-5.91,6.2-9.69,8.11-5.06,2.54-11.11,1.57-16.67,2.61a13.76,13.76,0,0,0-7.63,4.24c-1.84,2.11-1.15,5.6-3.63,7-1.6,2.23,1.52,6.94,1.91,9.66s.26,6-2.08,7.49a7.76,7.76,0,0,1-4.43.72l-14.44-.47c-1.66,0-3.43-.08-4.82.82-4.71,3.06.28,8.58-2,12.16a17.58,17.58,0,0,0-1.89,2.82c-.82,2.12.31,5-1.34,6.54-1.09,1-3,1-3.79,2.3a3.82,3.82,0,0,0-.31,2.3l1,13.18h-37a7.26,7.26,0,0,1-.63-5.36c1.09-3.37,5-4.83,7.44-7.37s3.5-6.26,4.65-9.7c1.39-4.08,5.69-4.28,6.91-8.82.77-2.83.52-5.82.88-8.74s1.58-6,4.2-7.33c2.84-1.42,6.58-.35,9.2-2.16,2.45-1.69,2.71-5,3.27-8a.45.45,0,0,0,0-.11l.12-.62a8.44,8.44,0,0,1,2.43-5c2.63-2.29,6.61-1.43,10.09-1.64,5-.3,8.77-3.08,11.78-6.84,2.31-2.9,6.55-6.26,6.9-10.18.39-4.49-3.87-8.73-2.59-13.05,1.13-3.76,5.77-5.2,8-8.46,1.48-2.2,1.7-5.06,3-7.37,3.43-6,13.08-6.7,15.71-13.14,1.32-3.22,1.28-7.63,3-10.62s6.39-4.47,8.74-1.91c.88,1,1.27,2.32,2.2,3.24,2.71,2.7,7.26.15,11.08.52,2.59.25,4.81,1.89,7.08,3.17s5.13,2.19,7.43,1c.62,9.53-.92,16.91,4,23.46a15.77,15.77,0,0,1,2.9,4.61C298.13,187.18,297.62,189.42,295.94,190.13Z"/><path class="cls-2" d="M104.36,236.36a47,47,0,0,0-34.73,14.48,49.68,49.68,0,0,0,0,69.79,47,47,0,0,0,34.73,14.49,49.19,49.19,0,0,0,15.78-2.52Q120,359.3,109,371.49q-11.19,12.35-36.21,12.35-30.61,0-46.74-14.16T9.88,336.76a55.5,55.5,0,0,1,2.3-16q2.3-7.74,6.91-10.7,6.59-4.28,19.43-2.31-1.65-9.21-7.41-11.68T22.71,294c3.08-4.17,4.66-8.17,4.78-12a91.66,91.66,0,0,0-.49-12Q15.14,280.47,7.57,297.76T0,336.76q0,15.15,7.74,31.11t23.86,27q16.13,11,41.15,11,28.65,0,44.94-10.87t23.86-26.17a97,97,0,0,0,9.55-29.46,167.67,167.67,0,0,0,2-20.74V285.74a48.18,48.18,0,0,0-14.16-34.9A46.51,46.51,0,0,0,104.36,236.36Zm0,65.84A16.31,16.31,0,1,1,116,297.42,15.87,15.87,0,0,1,104.36,302.2Z"/><path class="cls-3" d="M717.67,162.6a25,25,0,0,0,17.68-42.67A25,25,0,1,0,700,155.28,24.09,24.09,0,0,0,717.67,162.6Z"/><path class="cls-2" d="M718,187q-20.09,0-34.4,14.49a49.68,49.68,0,0,0,0,69.79q14.32,14.48,34.4,14.48a48.53,48.53,0,0,0,16.13-2.7V302.2H202.46V71.76L169.54,79V327.55q0,6.26,13.16,7.57H753.88q13.17-1.32,13.17-7.57V236.36a47.57,47.57,0,0,0-14.48-34.89Q738.08,187,718,187Zm0,66.17a16.79,16.79,0,0,1,0-33.58,16.74,16.74,0,0,1,12,4.94,16.32,16.32,0,0,1,0,23.7A16.74,16.74,0,0,1,718,253.15Z"/><path class="cls-2" d="M849.34,38.85h-24A65.73,65.73,0,0,1,812,37.37Q804.9,35.89,804.9,26a53.88,53.88,0,0,1,1.15-7.57q1.16-5.94,9.38-8.23,4.61-1.32,11.2.33a52,52,0,0,1,8.56,2.63q-3.3-7.58-9.88-10.37c-4.39-1.86-8-2.8-10.86-2.8q-12.84,0-19.1,6.42a36.32,36.32,0,0,0-8.89,16.3,75,75,0,0,0-1.91,16.13H770.34l-9.88,16.46h79Z"/><path class="cls-2" d="M816.42,308.78v-237L783.5,79V308.78q0,14.82,8.73,21.4A32.63,32.63,0,0,0,813,336.6,45.91,45.91,0,0,0,835,330.84q10-5.59,12.67-14.81-6.26,3-18.77,3.62T816.42,308.78Z"/><path class="cls-4" d="M730.7,104.34l-6.23,6.57q4.77,4.32,6.07,8.1a6.46,6.46,0,0,1-2.69,1.73,6.7,6.7,0,0,1-3.43.42q-5.85-.89-5-7.76l-2.19-.34q-3.66,10.56-8.59,9.81a3.48,3.48,0,0,1-2.7-1.94,6.77,6.77,0,0,1-.49-4.18,11.64,11.64,0,0,1,1.08-3.43l-1.7-1.11q-5.76,6-6.62,11.65a10.17,10.17,0,0,0,.94,6.72,6,6,0,0,0,4.48,3.16,8,8,0,0,0,5.93-1.5,16.49,16.49,0,0,0,4.86-5.59,7.62,7.62,0,0,0,6.63,5.62,10.33,10.33,0,0,0,9-3.08,16.6,16.6,0,0,0,5-9.85,18.23,18.23,0,0,0-.5-7.85A19.93,19.93,0,0,0,730.7,104.34Z"/><path class="cls-3" d="M98.56,156.07l29.13-.37,6.76-7.14,5.55.24c-.35-.39-.69-.79-1.08-1.18a24.59,24.59,0,0,0-34.77,0A24.43,24.43,0,0,0,98.56,156.07Z"/><path class="cls-3" d="M137.82,159.2l8,1.68a23.18,23.18,0,0,0-5-11.16Z"/><path class="cls-3" d="M145.81,161l-8.52,2,5.06,9.75-6.12.62-7.45-5.94L97.7,170l2.37,7.11a25.24,25.24,0,0,0,4.08,5.29,24.56,24.56,0,0,0,34.77,0A23.7,23.7,0,0,0,146.14,165,26.64,26.64,0,0,0,145.81,161Z"/><path class="cls-3" d="M81.45,171.85,60,172.21c-3.68.62-11.45-7.15-11.45-7.15,2.79-3.72,8-6.6,10.95-8a11.09,11.09,0,0,1,4.37-1.09l18.81-.71L88,145.39a24.59,24.59,0,0,0-32.21,2.23,24.6,24.6,0,0,0,17.39,42,23.58,23.58,0,0,0,16.26-6.18Z"/></g></g></svg>