<?xml version="1.0" encoding="iso-8859-1"?>
<!-- Generator: Adobe Illustrator 17.1.0, SVG Export Plug-In . SVG Version: 6.00 Build 0)  -->
<!DOCTYPE svg PUBLIC "-//W3C//DTD SVG 1.1//EN" "http://www.w3.org/Graphics/SVG/1.1/DTD/svg11.dtd">
<svg version="1.1" id="Capa_1" xmlns="http://www.w3.org/2000/svg" xmlns:xlink="http://www.w3.org/1999/xlink" x="0px" y="0px"
	 viewBox="0 0 473.508 473.508" style="enable-background:new 0 0 473.508 473.508;" xml:space="preserve">
<g>
	<path d="M350.504,73.738V57.165c0-8.284-6.716-15-15-15s-15,6.716-15,15V73.73c-69.051,5.984-123.038,53.391-123.083,110.807
		c0,4.047,3.165,7.388,7.18,7.605c0.15,0.009,0.302,0.013,0.454,0.013c2.108,0,4.132-0.846,5.542-2.309
		c8.773-9.041,20.529-14.021,33.101-14.021c12.518,0.007,24.233,4.935,32.983,13.872c1.424,1.457,3.407,2.292,5.444,2.292
		c1.818,0,3.581-0.653,4.965-1.842c9.614-8.273,21.14-13.949,33.413-16.624v144.391H14.539C6.522,317.915,0,324.436,0,332.451
		s6.522,14.536,14.539,14.536h127.125c7.465,0,13.539,6.072,13.539,13.536c0,7.467-6.074,13.542-13.539,13.542H88.248
		c-8.019,0-14.542,6.521-14.542,14.536c0,8.017,6.523,14.539,14.542,14.539h91.639c5.606,1.656,9.711,6.842,9.711,12.977
		c0,7.467-6.074,13.542-13.539,13.542H53.813c-8.019,0-14.542,6.521-14.542,14.536c0,8.017,6.523,14.539,14.542,14.539h271.561
		c8.016,0,14.536-6.522,14.536-14.539c0-8.015-6.521-14.536-14.536-14.536h-19.112c-7.464,0-13.536-6.075-13.536-13.542
		c0-6.134,4.105-11.32,9.709-12.977h80.43c8.016,0,14.536-6.522,14.536-14.539c0-8.015-6.521-14.536-14.536-14.536h-88.553
		c-7.464,0-13.536-6.075-13.536-13.542c0-7.464,6.072-13.536,13.536-13.536h139.988c8.019,0,14.542-6.521,14.542-14.536
		s-6.523-14.536-14.542-14.536h-83.797V173.54c12.245,2.682,23.741,8.35,33.33,16.603c1.38,1.191,3.144,1.847,4.968,1.847
		c2.063,0,3.995-0.811,5.448-2.29c8.746-8.939,20.46-13.867,32.982-13.874c12.57,0,24.327,4.979,33.091,14.007
		c1.515,1.573,3.742,2.425,5.979,2.311c4.04-0.219,7.205-3.56,7.205-7.611C473.461,127.143,419.514,79.751,350.504,73.738z"/>
	<path d="M22.947,115.963h22.601c0.942,3.045,2.169,5.964,3.639,8.737l-15.996,15.996c-5.858,5.858-5.858,15.355,0,21.213
		c2.929,2.929,6.768,4.394,10.606,4.394s7.678-1.464,10.606-4.394l15.996-15.996c2.772,1.47,5.692,2.697,8.737,3.639v22.601
		c0,8.284,6.716,15,15,15s15-6.716,15-15v-22.601c3.045-0.942,5.964-2.169,8.736-3.639l15.996,15.996
		c2.929,2.929,6.768,4.394,10.606,4.394s7.678-1.464,10.606-4.394c5.858-5.858,5.858-15.355,0-21.213L139.086,124.7
		c1.47-2.772,2.697-5.692,3.639-8.737h22.601c8.284,0,15-6.716,15-15s-6.716-15-15-15h-22.601c-0.942-3.045-2.169-5.964-3.639-8.736
		l15.996-15.996c5.858-5.858,5.858-15.355,0-21.213c-5.857-5.858-15.355-5.858-21.213,0l-15.996,15.996
		c-2.772-1.47-5.691-2.697-8.736-3.639V29.773c0-8.284-6.716-15-15-15s-15,6.716-15,15v22.601c-3.045,0.942-5.964,2.169-8.737,3.639
		L54.405,40.018c-5.857-5.858-15.355-5.858-21.213,0c-5.858,5.858-5.858,15.355,0,21.213l15.996,15.996
		c-1.47,2.772-2.697,5.691-3.639,8.736H22.947c-8.284,0-15,6.716-15,15S14.663,115.963,22.947,115.963z"/>
</g>
<g>
</g>
<g>
</g>
<g>
</g>
<g>
</g>
<g>
</g>
<g>
</g>
<g>
</g>
<g>
</g>
<g>
</g>
<g>
</g>
<g>
</g>
<g>
</g>
<g>
</g>
<g>
</g>
<g>
</g>
</svg>
