<svg xmlns="http://www.w3.org/2000/svg" viewBox="0 0 94.85 83.36"><defs><style>.cls-1{fill:#eca435;}</style></defs><g id="Layer_2" data-name="Layer 2"><g id="مصر"><path class="cls-1" d="M93.55,81.07c-2.7-2.33-7-2.49-9.14-5.35-1.9-2.57-1.2-6.12-1.51-9.3-.41-4.19-2.67-8-5.05-11.42s-5-6.9-6.22-10.92c-1.5-4.84.32-13.76,6.41-11.4a12.29,12.29,0,0,1-3.72-10.3c.42-3.73,1.31-7.6.14-11.17a10.28,10.28,0,0,0-5.1-5.9c-1.69,1.44-4.83,2.23-6.1.78-3.43,2-7.79,1-11.55-.36S43.92,2.82,40.1,4c-3.05.93-5.35,3.45-8.21,4.86-5.79,2.85-12.77.73-18.5-2.24C9,4.31,4.68,1.5,0,0L4.88,83.36l90-.82A7.83,7.83,0,0,0,93.55,81.07Z"/></g></g></svg>
