<svg xmlns="http://www.w3.org/2000/svg" viewBox="0 0 35.59 25.15"><defs><style>.cls-1{fill:#eca435;}</style></defs><g id="Layer_2" data-name="Layer 2"><g id="الإمارات"><path class="cls-1" d="M29.53.91c-1.65,1.26-2.45,3.32-3.14,5.27s-1.41,4-3,5.4c-3.69,3.27-14.56,2.21-19.17,1.15A20.93,20.93,0,0,1,0,11.19,11.23,11.23,0,0,1,1.42,15c0,1.51-.37,3-.19,4.53A3.68,3.68,0,0,0,3,22.4c1.19.58,2.39-.13,3.58-.38,2.4-.51,4.14.46,5.94,1.9a6.56,6.56,0,0,0,6.39.7,15.5,15.5,0,0,1,8.63-1h0a8.1,8.1,0,0,1,.31-1.38c.76-2.29,2.63-4.07,3.45-6.33s.5-4.68.75-7,1.35-4.86,3.56-5.57a4.16,4.16,0,0,0-.55-2C33.94-.39,31.18-.35,29.53.91Z"/></g></g></svg>
