<?xml version="1.0" encoding="iso-8859-1"?>
<!-- Generator: Adobe Illustrator 18.0.0, SVG Export Plug-In . SVG Version: 6.00 Build 0)  -->
<!DOCTYPE svg PUBLIC "-//W3C//DTD SVG 1.1//EN" "http://www.w3.org/Graphics/SVG/1.1/DTD/svg11.dtd">
<svg version="1.1" id="Capa_1" xmlns="http://www.w3.org/2000/svg" xmlns:xlink="http://www.w3.org/1999/xlink" x="0px" y="0px"
	 viewBox="0 0 55.999 55.999" style="enable-background:new 0 0 55.999 55.999;" xml:space="preserve">
<g>
	<path d="M55.954,38.395c-0.399-4.089-3.451-7.053-7.271-7.053c-2.396,0-4.407,1.449-5.684,3.213
		c-1.276-1.764-3.288-3.213-5.684-3.213c-3.818,0-6.871,2.963-7.271,7.052c-0.042,0.267-0.145,1.22,0.226,2.709
		c0.545,2.197,1.8,4.191,3.631,5.771L43,54.658l9.1-7.787c1.828-1.575,3.083-3.57,3.629-5.768
		C56.098,39.614,55.996,38.662,55.954,38.395z M53.787,40.621c-0.445,1.794-1.479,3.432-2.99,4.732L43,52.026l-7.794-6.67
		c-1.514-1.305-2.549-2.941-2.993-4.735c-0.302-1.213-0.194-1.897-0.194-1.897l0.016-0.105c0.245-2.621,2.138-5.275,5.282-5.275
		c2.189,0,3.974,1.811,4.77,3.605L43,39.008l0.914-2.061c0.796-1.795,2.58-3.605,4.77-3.605c3.145,0,5.037,2.654,5.295,5.367
		C53.98,38.716,54.091,39.4,53.787,40.621z"/>
	<path d="M31.952,49.153c-2.31-1.991-3.896-4.524-4.593-7.327c-0.46-1.858-0.379-3.19-0.289-3.82c0.481-4.68,3.755-8.39,7.977-9.386
		c0.33-0.078,0.665-0.14,1.004-0.186c0.218-0.028,0.44-0.04,0.661-0.053c0.201-0.013,0.399-0.039,0.604-0.039
		c1.994,0,3.983,0.686,5.684,1.946c1.7-1.261,3.689-1.946,5.684-1.946c2.372,0,4.565,0.849,6.316,2.281V2.342
		c0-0.321-0.154-0.623-0.416-0.812s-0.597-0.241-0.901-0.137l-17.73,5.91L19.229,3.368c-0.076-0.018-0.152-0.026-0.228-0.026
		c-0.048,0-0.094,0.017-0.142,0.024c-0.026,0.004-0.051-0.006-0.076,0l-18,4C0.326,7.468,0,7.873,0,8.342v43
		c0,0.304,0.138,0.59,0.375,0.78c0.179,0.144,0.4,0.22,0.625,0.22c0.072,0,0.145-0.008,0.217-0.023l17.807-3.957l15.122,2.669
		L31.952,49.153z M20,46.503V5.604l15,3.529v17.449c-5.208,1.046-9.321,5.552-9.915,11.181c-0.108,0.788-0.199,2.392,0.334,4.544
		c0.503,2.027,1.41,3.927,2.673,5.623L20,46.503z"/>
</g>
<g>
</g>
<g>
</g>
<g>
</g>
<g>
</g>
<g>
</g>
<g>
</g>
<g>
</g>
<g>
</g>
<g>
</g>
<g>
</g>
<g>
</g>
<g>
</g>
<g>
</g>
<g>
</g>
<g>
</g>
</svg>
