<svg xmlns="http://www.w3.org/2000/svg" viewBox="0 0 120.56 119.56"><defs><style>.cls-1{fill:#744f37;}</style></defs><g id="Layer_2" data-name="Layer 2"><g id="المغرب"><path class="cls-1" d="M118.93,36.41c-2.81,1.21-5-3.24-8-3.58-5.81-.63-4.38,9.37-6.72,12.25a9.14,9.14,0,0,1-5.46,3.08,10.93,10.93,0,0,0-5.27,2.46c-2.87,2.28-5.12,5.37-8.4,7-4.39,2.2-9.64,1.36-14.46,2.27A11.87,11.87,0,0,0,64,63.59c-1.6,1.83-1,4.86-3.15,6.07-1.39,1.93,1.32,6,1.66,8.38s.22,5.23-1.81,6.49a6.69,6.69,0,0,1-3.84.63l-12.53-.41a7.22,7.22,0,0,0-4.18.71C36,88.12,40.35,92.91,38.39,96a15.18,15.18,0,0,0-1.64,2.45c-.71,1.84.27,4.3-1.16,5.67-.94.89-2.62.88-3.29,2a3.38,3.38,0,0,0-.27,2c.28,3.81.56,7.61.84,11.43H.78a6.28,6.28,0,0,1-.54-4.65c.94-2.93,4.31-4.19,6.45-6.4s3-5.43,4-8.41c1.21-3.54,4.94-3.71,6-7.65.67-2.46.45-5.06.77-7.58s1.36-5.22,3.64-6.36c2.46-1.23,5.7-.31,8-1.88,2.12-1.47,2.35-4.29,2.84-7,0,0,0-.07,0-.1l.11-.54a7.37,7.37,0,0,1,2.1-4.37c2.28-2,5.74-1.24,8.76-1.42,4.33-.26,7.61-2.68,10.22-5.94,2-2.51,5.68-5.42,6-8.83.34-3.9-3.36-7.58-2.24-11.32,1-3.26,5-4.51,6.9-7.34,1.28-1.91,1.47-4.39,2.62-6.39,3-5.25,11.35-5.82,13.63-11.41,1.14-2.78,1.12-6.62,2.64-9.21s5.55-3.87,7.58-1.65c.76.83,1.1,2,1.91,2.8,2.35,2.35,6.3.14,9.61.45C104,4.61,106,6,107.93,7.15S112.39,9,114.38,8c.54,8.27-.8,14.67,3.5,20.36a13.62,13.62,0,0,1,2.51,4C120.84,33.85,120.39,35.79,118.93,36.41Z"/></g></g></svg>
