<svg xmlns="http://www.w3.org/2000/svg" viewBox="0 0 161.19 133.28"><defs><style>.cls-1{fill:#744f37;}</style></defs><g id="Layer_2" data-name="Layer 2"><g id="السعودية"><path class="cls-1" d="M156.88,68.59c.8-2.23.51-4.68.76-7S159,56.7,161.19,56a4.18,4.18,0,0,0-.54-2c-1.11-1.76-3.87-1.72-5.52-.46s-2.44,3.32-3.13,5.28-1.41,4-3,5.39c-3.7,3.27-14.56,2.21-19.18,1.15S119,60.43,116.39,56.23c-2.43-4-.62-9.8-3.7-13.31-1.71-1.94-4.34-2.46-6.23-4.1-.93-.81-1.35-2.06-2.18-2.8S102,36,101.42,34.28a13,13,0,0,1-.22-3.37c-.07-1.12-.62-2.39-1.73-2.62-2-.42-3.17,2.07-5.4,1.19-1-.42-2.69-2.88-3.54-3.77a12.13,12.13,0,0,1-1.64-2.15c-3.81,1.35-7.8,2.63-11.79,2.09-3.21-.44-6.14-2-9-3.57L62,18.72c-6.55-3.57-13.19-7.21-18.5-12.44-2.12-2.1-4.11-4.5-6.88-5.61-5.24-2.1-11,1.12-15.69,4.22-1.28.84-2.69,1.92-2.69,3.44s1.17,2.43,1.93,3.58c2.28,3.44.28,8.84-3.68,10-1.69.48-3.63.08-5.19.93-1.38.75-2.19,2.6-3.88,2.83-1.23.17-2.34-.79-3.58-.9a3.64,3.64,0,0,0-3.32,2C-.19,28,.17,32.93,0,34.29q.3.12.6.27c3.78,1.84,7.66,6,9.86,9.56,3.13,5.05,5.35,10.74,9.37,15.11,4.65,5,11.75,8.51,13.45,15.16,1.48,5.73-1.48,12.75,2.39,17.23,1.84,2.12,4.75,3,7,4.69,3.7,2.89,5,7.79,6.74,12.15s5.44,9.4,10.13,9.67a33.91,33.91,0,0,1,7.72,12.94l.24.18c1.4-4.21,1.6-8.9,6.84-9.83,3.21-.58,6.46.5,9.54,1.55,2.5.86,5.28,2,6.25,4.44.48,1.21.43,2.56.85,3.79s1.64,2.4,2.88,2,1.56-1.93,1.67-3.22a44.91,44.91,0,0,1,1.38-9.54c1-3.08,2.83-6,5.7-7.49,4.84-2.49,10.89-.18,16.09-1.82,3.23-1,5.8-3.48,8.78-5.1,6-3.25,13.25-3,19.73-5.08a12.36,12.36,0,0,0,4.9-2.71c3.91-3.88,2.49-10.59,1.63-15.34-.48-2.65-1.12-5.43-.27-8C154.2,72.63,156.07,70.86,156.88,68.59Z"/></g></g></svg>
