<svg id="Layer_1" data-name="Layer 1" xmlns="http://www.w3.org/2000/svg" xmlns:xlink="http://www.w3.org/1999/xlink" viewBox="0 0 1080 1080"><defs><clipPath id="clip-path"><circle cx="540" cy="540" r="509.41" fill="none"/></clipPath></defs><circle cx="540" cy="540" r="509.41" fill="#fff" stroke="#1d1d1b" stroke-miterlimit="10"/><g clip-path="url(#clip-path)"><path d="M649.72,318.88c-2.94,1.7-4.71,4.84-7.17,7.18a72.76,72.76,0,0,1,23,.91c-.12-.45-.21-.9-.37-1.34C663,319.61,655.28,315.68,649.72,318.88Z" fill="#ebecee" stroke="#fff" stroke-miterlimit="10" stroke-width="4.21"/><path d="M676.35,163.77a87,87,0,0,1-34.62,7.53,85.44,85.44,0,0,1-17.93-1.9,88.4,88.4,0,0,1-42.22,11.3,84.49,84.49,0,0,1-21.93-2.88c-1.2,1.38-2.42,2.73-3.68,4C540.37,197.41,517.18,207,495.11,207h-.57c-2.16.44-4.35.81-6.56,1.08a17.85,17.85,0,0,0,6.1,1.49,82.39,82.39,0,0,1,22.74,54.35c.17,6.29-.38,12.7,1.28,18.77,4.42,16.07,16.27,11.43,28.29,8.86A62.47,62.47,0,0,1,563.54,290c5.7.46,11.15,3.84,16.92,3.2,7.67-.86,12.46-7.43,19-10.72,5.21-2.62,10.8-4.12,16-6.91,11.6-6.23,21.88-17.63,35.31-18.55,7.9-.54,16.59-.14,22.78-5.07,4.76-3.79,6.89-9.91,10.21-15a35.32,35.32,0,0,1,17.58-13.64,20.41,20.41,0,0,1,3.76-.92A92.17,92.17,0,0,1,676.35,163.77Z" fill="#ebecee" stroke="#fff" stroke-miterlimit="10" stroke-width="4.21"/><path d="M665.59,327c-.12-.45-.21-.9-.37-1.34-2.21-6-9.94-9.95-15.5-6.75-2.94,1.7-4.7,4.84-7.17,7.18A72.76,72.76,0,0,1,665.59,327Z" fill="#ebecee" stroke="#fff" stroke-miterlimit="10" stroke-width="4.21"/><path d="M624.13,330.76a107.38,107.38,0,0,0-34,6.86c-4.67,1.77-11.38,6.94-16.34,6.63-5.42-.34-8.69-6.07-15-4.77-3,.62-5.53,2.62-8.32,3.91-9.58,4.43-21.39-.14-28.49-7.95s-8.5-15.22-12.83-24.84a121.2,121.2,0,0,0-44-51.4c-8.17-5.32-17.3-10-22.68-18.08-8.68-13.12-5.5-32.29-16.29-43.73-7.62-8.07-20.46-10.1-27-19.07-5.67-7.77-4.88-18.3-4.4-27.91.41-8,0-16.85-4.35-23.24L187.14,129a125.35,125.35,0,0,1,18.56,50.82A153,153,0,0,1,202,239.41c-4.44,17.42-11.6,33.87-16,51.23q0,1.22,0,2.43a171.12,171.12,0,0,0,4.88,16.73c3.41-18.41,9.67-36.23,19.34-51.85,20.78-33.57,59.19-48.22,97.2-39.56,37.14,8.46,62.44,46.54,63.2,83,0,1.72.14,3.42.24,5.12,2.32,12.71,5,25.33,6.74,38.17.32,2.4.61,4.8.91,7.2a87.73,87.73,0,0,1,32.69,20.23c16.13,16.09,32.53,31.93,48.08,48.57,9.9-6.47,19.76-12.92,29.69-19.06,44.32-27.46,89.57-51.2,137.82-70.95Z" fill="#ebecee" stroke="#fff" stroke-miterlimit="10" stroke-width="4.21"/><path d="M14.21,95.06,154,175.59v-7.73L174.35,164l-2-34.8L160.48-73a53.82,53.82,0,0,0-10.39-2.29c-10.31-1.13-21.54,1.06-30.48-4.18-5.26-3.09-9.07-8.47-14.74-10.71-8.18-3.24-17.34,1.07-24.57,6.1C72.69-78.8,65-69.26,69.63-61.19c1.72,3,4.86,5,6.85,7.85,5.23,7.53-.1,19.05-8.72,22.12s-18.51-.66-25.18-6.94c-6.4-6-11.46-14.76-20.11-16.35C13-56.25,1.46-49-5.32-55.76c-5.16-5.17-2.37-14.05-4.74-21C-13.27-86.1-24.92-89.42-34.82-89.2s-22.64,6.7-30.54.72l-8.3-6.28-1.69,1c3.69,6.67-.12,16.28-7.38,18.6-3.54,1.13-7.52.73-10.84,2.41-4.22,2.12-6.26,7-6.91,11.73s-.28,9.49-1.35,14.09-4,8.91-8.34,10c.56,5.29.89,10.6,1.11,15.79,1.16,26.6,1.55,53.41,7.1,79.46.92,4.32,2,8.76,4.84,12.2,6.66,8.21,33.61,14.5,28,29.69l1,.32,56.13,8.27C-3,105,5.1,98.86,14.21,95.06Z" fill="#ebecee" stroke="#fff" stroke-miterlimit="10" stroke-width="4.21"/><path d="M332.6,317.68c-.22,4.91-1.9,10-.32,14.62,1.81,5.35,14.79,11.09,19.83,13.64h0a56.7,56.7,0,0,1,3.12-5.63C367.39,320.54,379,300,391.18,280.26c-3.42-8.82-6.86-18.7-3.34-27.48,1.74-4.33,5.06-7.95,6.4-12.42,1.49-5,.39-10.42,2-15.35,2-6.28,7.86-10.39,13.35-14,6.55-4.37,10.05-9.22,16.61-13.58-7.62-8.07-20.46-10.1-27-19.07-5.67-7.77-4.88-18.3-4.4-27.91.41-8,0-16.85-4.35-23.24l-218.12,2,2,34.8L154,167.86v62.19c0,5.34,3,20.5-2.57,22.24-2.29.72-4.81.54-7,1.5-5.05,2.21-3.67,7.38-4.12,11.67a22.81,22.81,0,0,1-8,14.87c-2.44,2-5.31,3.49-7.41,5.84s-3.23,6-1.5,8.66c2.86,4.33,11.6,3.7,11.87,8.87.14,2.68-2.48,4.69-3.15,7.29-.79,3.07,1.3,6.12,3.58,8.32,5.68,5.45,5.4,9,2.51,11.68h0c-1.53,4.76,1.1,12.45,5.38,15,1.71,1,3.71,1.62,5.2,3,4,3.61,3.69,11.9,9,12.63,3.41.47,6-3,7.37-6.15s2.57-6.9,5.73-8.28c4.1-1.78,8.59,1.59,11.27,5.16s5.12,7.92,9.41,9.17c4.86,1.43,9.78-1.78,14.8-2.49,5.64-.8,11.16,1.58,16.58,3.31s11.75,2.73,16.48-.43c6.75-4.51,8.31-16.17,16.38-17,6.81-.73,11,7.13,16.91,10.6,10.75,6.34,19.2-2.42,25.79-9.53,7.65-8.25,15.36-15.63,11.15-28.21-.87-2.63-2.24-5.16-2.37-7.92-.23-4.77,3.65-9.21,8.32-10.21s9.7,1.1,12.79,4.74A19.28,19.28,0,0,1,332.6,317.68Z" fill="#ebecee" stroke="#fff" stroke-miterlimit="10" stroke-width="4.21"/><path d="M502.78,468.51c5.54-3.69,7.1-11.51,12.58-15.28,8.92-6.14,21.54,2,31.78-1.53,7.56-2.57,11.56-10.53,15.9-17.22a78,78,0,0,1,28.16-26c3.13-1.69,6.43-3.2,9-5.66s4.33-6.15,3.39-9.58-4.6-5.88-8.24-6.63-7.39-.29-11.1-.25c-10.59.11-20.88-3.23-31-6.54l-19.41-6.37c-3.06-1-6.18-2-8.7-4-3.82-3-5.75-7.76-7.52-12.28-1.86-4.75-3.74-9.56-4.26-14.63s0-10.5,3.29-14.39l0,0h0c-3-5.36-4.63-10.92-7.6-17.52a121.2,121.2,0,0,0-44-51.4c-8.17-5.32-17.3-10-22.68-18.08-8.68-13.12-5.5-32.29-16.29-43.73-6.56,4.36-10.06,9.21-16.61,13.58-5.49,3.65-11.34,7.76-13.35,14-1.58,4.93-.48,10.39-2,15.35-1.34,4.47-4.66,8.09-6.4,12.42-3.52,8.78-.08,18.66,3.34,27.48C379,300,367.39,320.54,355.23,340.31c-3.08,5-6.28,10.78-4.72,16.45,1.43,5.15,6.63,9.34,5.84,14.62-1.58,10.57-21.52,6.13-25.76,15.95-2,4.55.91,9.93,4.91,12.87s8.94,4.23,13.42,6.37c7,3.33,12.14,8.71,16.27,15.12,4.45,6.9,1.82,12.62,4.79,19.69,1.88,4.51,7.64,7.72,11.8,5.16,2.29-1.41,4-4.35,6.66-4.19s4,3.26,4.08,5.88-.5,5.4.65,7.76c1.6,3.28,5.85,4.28,9.49,4s7.28-1.41,10.88-.82c5.22.86,9.13,5.09,13.75,7.65,10.83,6,24.18,2.33,36.09-1S493,460.94,502.78,468.51Z" fill="#ebecee" stroke="#fff" stroke-miterlimit="10" stroke-width="4.21"/><path d="M387.37,123.6c-6.55-5.66-17-6-22.16-13-4.61-6.22-2.93-14.84-3.68-22.55-1-10.15-6.47-19.27-12.24-27.68s-12.07-16.74-15.08-26.49C330.57,22.14,335,.52,349.75,6.24c-6.76-6.12-10-15.91-9-25s3.16-18.44.33-27.11A24.87,24.87,0,0,0,328.7-60.14c-4.1,3.49-11.73,5.39-14.79,1.89-8.32,4.92-18.91,2.36-28-.87s-18.9-7.06-28.15-4.25c-7.41,2.24-13,8.37-19.92,11.79-14,6.92-31,1.76-44.86-5.44-10.7-5.55-21.14-12.38-32.48-16l11.83,202.17,218.2-2A18,18,0,0,0,387.37,123.6Z" fill="#ebecee" stroke="#fff" stroke-miterlimit="10" stroke-width="4.21"/><path d="M730.25,89.42c1.94-5.4,1.22-11.34,1.84-17s3.26-11.79,8.61-13.49A10,10,0,0,0,739.38,54C736.7,49.77,730,49.86,726,52.93s-5.94,8-7.62,12.79S715,75.48,711.2,78.81c-9,7.92-35.32,5.36-46.5,2.78C653.29,79,638.26,69.64,632,59.44c-5.89-9.68-1.51-23.77-9-32.27-4.13-4.7-10.51-6-15.09-10-2.25-2-3.29-5-5.29-6.8-2.25-2-5.56-.1-6.95-4.22-.87-2.59-.34-5.42-.52-8.15s-1.52-5.82-4.2-6.37c-4.94-1-7.68,5-13.1,2.88-2.53-1-6.52-7-8.58-9.14a29,29,0,0,1-4-5.2c-9.26,3.27-18.92,6.37-28.61,5.05-7.79-1-14.88-4.88-21.77-8.64l-15-8.15C484.14-40.18,468-49,455.15-61.71c-5.14-5.07-10-10.89-16.67-13.59-12.71-5.1-26.62,2.72-38.07,10.23-3.09,2-6.52,4.66-6.52,8.35,0,3.35,2.84,5.88,4.69,8.66,5.53,8.35.69,21.46-8.94,24.21-4.08,1.16-8.78.2-12.57,2.26-3.36,1.83-5.33,6.3-9.42,6.87-3,.42-5.68-1.91-8.68-2.19-3.32-.31-6.43,2-8.05,4.95s-.76,14.89-1.17,18.2c.48.19,1,.4,1.47.64,9.16,4.47,18.58,14.58,23.91,23.21,7.58,12.25,13,26,22.73,36.63,11.26,12.23,28.47,20.65,32.62,36.76,3.58,13.91-3.61,30.94,5.79,41.79,4.47,5.16,11.53,7.18,16.9,11.37,9,7,12.09,18.92,16.33,29.49s13.21,22.78,24.58,23.44A82.12,82.12,0,0,1,512.81,241l.58.43c3.41-10.22,3.88-21.58,16.6-23.86,7.78-1.39,15.65,1.22,23.12,3.78,6.06,2.08,12.81,4.8,15.17,10.76,1.16,2.93,1,6.22,2.05,9.2s4,5.81,7,4.85,3.78-4.7,4-7.8c.67-7.79,1.06-15.69,3.37-23.15s6.86-14.6,13.81-18.17c11.74-6,26.42-.44,39-4.42,7.85-2.48,14.06-8.43,21.3-12.35,14.53-7.89,32.13-7.2,47.85-12.34,4.34-1.42,8.64-3.35,11.89-6.57,9.48-9.41,6-25.69,3.95-37.2-1.16-6.42-2.72-13.16-.65-19.36C723.74,99.23,728.27,94.92,730.25,89.42Z" fill="#ebecee" stroke="#fff" stroke-miterlimit="10" stroke-width="4.21"/><path d="M726,52.93c-4,3.06-5.94,8-7.62,12.79S715,75.48,711.2,78.81c-9,7.92-35.32,5.36-46.5,2.78a50.17,50.17,0,0,1-10.31-3.74c1.91,3.53,3.4,7.44,3.45,9.3.1,3.67-.89,7.34-.47,11,.31,2.63,1.75,5.68,4.24,6.9,2.89,1.42,5.82-.31,8.7-.92,5.82-1.23,10,1.13,14.41,4.6a15.85,15.85,0,0,0,15.5,1.71c5.85-2.74,14.3-3.54,20.92-2.31h0a18.61,18.61,0,0,1,.75-3.35c1.84-5.54,6.37-9.85,8.35-15.35s1.22-11.34,1.84-17,3.26-11.79,8.61-13.49A10,10,0,0,0,739.38,54C736.7,49.77,730,49.86,726,52.93Z" fill="#ebecee" stroke="#fff" stroke-miterlimit="10" stroke-width="4.21"/><path d="M399.56-88.8c-9.72,6-28.68,15-36.11.63-.94-1.8-1.51-3.86-3-5.27-2.51-2.42-6.79-1.92-9.65.08s-4.67,5.14-6.57,8.06-7.78,9.86-11,11.15c0,4.17-.45,8.33-2.59,11.83a9.36,9.36,0,0,1-1.95,2.18,24.87,24.87,0,0,1,12.36,14.29c2.83,8.67.68,18.05-.33,27.11s2.26,18.86,9,25h0c.41-3.31-.45-15.29,1.17-18.2s4.73-5.26,8.05-4.95c3,.28,5.69,2.61,8.68,2.19,4.09-.57,6.06-5,9.42-6.87,3.79-2.06,8.49-1.1,12.57-2.26,9.63-2.75,14.47-15.86,8.94-24.21-1.85-2.78-4.69-5.31-4.69-8.66,0-3.69,3.43-6.33,6.52-8.35,11.45-7.51,25.36-15.33,38.07-10.23,6.7,2.7,11.53,8.52,16.67,13.59C468-49,484.14-40.18,500-31.52l15,8.15c6.89,3.76,14,7.59,21.77,8.64,9.69,1.32,19.35-1.78,28.61-5.05-3.75-6.36-3.77-13.4,4.72-19A29.48,29.48,0,0,1,583.15-43c-.06-8.5-5.62-9.69-9.35-16.72-3.27-6.16,1.73-14.51-.33-21.16-2.69-8.66-13.29-11.61-22.29-12.72s-19.48-2.61-23.94-10.5c-3.26-5.77-2-13,.39-19.22s5.76-12.1,6.57-18.68-1.91-14.28-8.17-16.42c-1.85-.63-3.84-.73-5.7-1.31-6-1.87-9.28-8-12.67-13.32-4.59-7.16-10.74-13.77-18.78-16.54s-18.16-.66-22.72,6.51c-2.24,3.52-3.08,8-6.16,10.82-4.51,4.14-13.24,4.31-14.4,10.32-.55,2.82,1.06,5.54,2.12,8.21,4.31,10.88-.54,23.37-7.67,32.66C429.48-107.32,414.35-97.91,399.56-88.8Z" fill="#ebecee" stroke="#fff" stroke-miterlimit="10" stroke-width="4.21"/><path d="M801.88,106.65c-6.57-10.48-15.33-26.55-26.62-21.52A24.53,24.53,0,0,1,740.79,63.7c-.08-2,.05-4-.2-6,0,.38.09.76.11,1.15-5.35,1.7-8,7.87-8.61,13.49s.1,11.65-1.84,17-6.51,9.81-8.35,15.35a17.4,17.4,0,0,0-.49,1.85c-.1.5-.19,1-.26,1.49-.75,5.24.44,10.73,1.4,16,2.08,11.51,5.53,27.79-3.95,37.2-3.25,3.22-7.55,5.15-11.89,6.57-11.11,3.63-23.17,4.36-34.42,7.26,0,.15,0,.29-.07.43-1,5.7-1.91,12,1.29,16.87s9.65,6.92,11.63,12.26c1.6,4.32-1.25,9.33.41,13.39,1.34,3.29,6.44,6.58,9.48,8.08l.12.07a36.76,36.76,0,0,1,6.21-2.95c7.35-2.66,14.8,0,21.71-2,12.61-3.59,11.16-20.85,20.41-28.1,8.06-6.3,21.25-3.11,28.27-10.51,9.54-10-1.49-28.82,7-39.73,6-7.65,17.17-6.69,23.92-13C810.41,122.81,806.44,113.93,801.88,106.65Z" fill="#ebecee" stroke="#fff" stroke-miterlimit="10" stroke-width="4.21"/><path d="M643.88,407.48c8.54-9.6,14.11-19.62,15.48-32.64,1.31-12.48-6.89-20.38,1.81-31.26,4-5,6.27-11.93,4.05-17.95s-9.94-9.95-15.5-6.75c-3.25,1.88-5.05,5.52-8,7.89-4.76,3.9-11.5,3.78-17.64,4a107.38,107.38,0,0,0-34,6.86c-4.67,1.77-11.38,6.94-16.34,6.63-5.42-.34-8.69-6.07-15-4.77-3,.62-5.53,2.62-8.32,3.91-9.58,4.43-21.39-.14-28.49-7.95a39.53,39.53,0,0,1-5.24-7.33l0,0c-3.3,3.89-3.82,9.32-3.29,14.39s2.4,9.88,4.26,14.63c1.77,4.52,3.7,9.27,7.52,12.28,2.52,2,5.64,3,8.7,4l19.41,6.37c10.07,3.31,20.36,6.65,31,6.54,3.71,0,7.47-.5,11.1.25s7.26,3.05,8.24,6.63-.81,7.12-3.39,9.58-5.87,4-9,5.66a78,78,0,0,0-28.16,26c-4.34,6.69-8.34,14.65-15.9,17.22-10.24,3.5-22.86-4.61-31.78,1.53-5.48,3.77-7,11.59-12.58,15.28-6,4-14.73,1.85-20.45,6.22-5.35,4.1-5.68,11.9-5.53,18.63.24,10.76.52,21.52.72,32.28.13,6.4,2.63,13.06,2.15,19.42-.39,5.2-2.92,9.63,1.25,14.37,1.22,1.39,5.23,2.85,9.47,3.9,5.55-8.12,9.62-17.25,16.17-24.62,8.82-9.9,19.61-17.91,30.7-25.06,17.55-11.31,36.35-21,51.9-34.89a122.18,122.18,0,0,0,32.77-48C626.6,418.25,635.74,416.62,643.88,407.48Z" fill="#ebecee" stroke="#fff" stroke-miterlimit="10" stroke-width="4.21"/><path d="M447.08,1093.37c2.22-.57-3.56-3-5.42-4.45h127.5L556.34,903.1H582c32,23.7,64.06,48,95,67.81,6.51,4.16,13.11,8.4,18.2,14.21,3.72,4.24,6.77,9.41,11.86,11.82,3.25,1.54,7,1.75,10.37,2.95,4.6,1.62,8.36,5,12,8.2l18.76,16.79,1.65.47c0-.54,0-1.1,0-1.63,20.42-13.83,45.39-27.27,65.81-41.09l53.05-35.92c4-2.69,8.16-5.64,9.95-10.1,6.17-15.43-21.14-21.75-27.85-30-2.78-3.43-3.92-7.88-4.84-12.2-5.55-26-5.94-52.86-7.1-79.46-.94-21.81-3.48-45.92-19.61-60.63-6.58-6-16-12.45-13.91-21.1.88-3.56,3.65-6.26,5.84-9.2,11.34-15.19,8.65-37.49,4.1-55.89-2.65,2-5.49,3.47-8.75,3.36-5.11-.17-9.24-4.26-14.19-5.55-11.5-3-22.53,9.66-34.19,7.38-8.15-1.59-15.06-10.27-23-7.86-4.51,1.37-7.33,6-11.68,7.82-7.38,3.08-15.56-2.94-23.52-2.22-13,1.19-21.4,19.6-34.14,16.68-3-.68-5.75-2.59-8.84-2.54-9,.14-10,14.46-18,18.7-4.81,2.56-10.77.63-15.53-2s-9.38-6.1-14.8-6.61c-8-.76-17.49,4.57-23.15-1.08-1.93-1.94-2.76-4.75-4.61-6.77-4.88-5.34-14.57-2.26-18.24,4s-3.61,15.48-6.35,22.18C550.83,727,530.69,728.39,523.51,741c-2.76,4.84-3.22,10.79-6.32,15.41-4.58,6.79-14.26,9.82-16.6,17.68-2.69,9,6.2,17.87,5.38,27.24-.72,8.22-9.57,15.23-14.41,21.28-6.28,7.86-14.18,13.67-24.59,14.29-7.28.43-15.6-1.35-21.11,3.43-8.1,7-3.4,22.76-12.22,28.86-5.46,3.78-13.26,1.55-19.2,4.52-5.49,2.75-8,9.23-8.77,15.31s-.24,12.35-1.84,18.26c-2.57,9.48-11.57,9.9-14.45,18.44-2.42,7.16-4.45,14.82-9.71,20.24s-13.28,8.36-15.55,15.41c-1.85,5.72,1,11.9,4.71,16.67s8.24,9,10.58,14.52c5,11.78-4.6,22.16-3.25,34.7,1.46,13.7,3,27.31-2.53,40.47-4.58,10.9-20.49,16.14-19.35,29.67C354.28,1097.42,345.86,1119.49,447.08,1093.37Z" fill="#ebecee" stroke="#fff" stroke-miterlimit="10" stroke-width="4.21"/><path d="M794.54,703.46c2.8,13.94,6.74,27.6,10,41.46,5.19,22,6.79,44.54,9.3,67,.32,2.08.65,4.17,1,6.25,17.68-2.46,31.88-3.62,50.94,1.58a127.82,127.82,0,0,1,18.43,6.6c.62-1.31,1.21-2.63,1.82-3.95,9.35-24.37,16.39-49.52,22.12-75-8.9,1.47-18.93,5.22-25.56.21l-26-19.69c-3.1-2.35-6.56-5.69-5.53-9.43,1.45-5.3,9.88-4.91,12.84-9.54,2.65-4.13-.52-9.47-3.79-13.12s-7.07-8.2-5.55-12.87c1.22-3.78,5.73-7.46,3.47-10.72-2.47-3.58-8.26.34-12.39-1-4.45-1.5-4.53-8-7.94-11.23-4.33-4.11-11.54-1.15-16,2.77s-9.1,9-15.07,8.78c-5.11-.17-9.24-4.26-14.19-5.55a14.81,14.81,0,0,0-3.27-.42,89.62,89.62,0,0,1,5.07,28.32Q794.22,698.67,794.54,703.46Z" fill="#ebecee" stroke="#fff" stroke-miterlimit="10" stroke-width="4.21"/><path d="M962.16,931.1,1102,1011.63v-7.74l20.34-3.91-2-34.79L1108.42,763a52.75,52.75,0,0,0-10.39-2.28c-10.3-1.13-21.54,1.06-30.48-4.19-5.26-3.08-9.07-8.46-14.74-10.7-8.18-3.24-17.34,1.06-24.56,6.09-7.62,5.31-15.27,14.85-10.68,22.91,1.73,3,4.86,5,6.85,7.86,5.23,7.52-.09,19-8.72,22.12s-18.51-.66-25.18-7c-6.4-6-11.46-14.75-20.11-16.35-9.43-1.74-21,5.55-27.79-1.24-5.16-5.17-2.37-14.06-4.74-21-3.21-9.37-14.86-12.69-24.76-12.48s-22.64,6.71-30.54.73l-8.3-6.28-1.69,1c3.7,6.67-.12,16.27-7.38,18.6-3.54,1.13-7.52.73-10.84,2.4-4.22,2.13-6.25,7.06-6.9,11.74s-.28,9.49-1.36,14.09-3.94,8.9-8.34,10c.57,5.29.89,10.6,1.11,15.78,1.16,26.6,1.55,53.42,7.1,79.46.92,4.32,2.06,8.77,4.84,12.2,6.66,8.21,33.61,14.51,28,29.7l1,.32,56.13,8.26C945,941.07,953.05,934.9,962.16,931.1Z" fill="#ebecee" stroke="#fff" stroke-miterlimit="10" stroke-width="4.21"/><path d="M1280.55,1153.72c-.23,4.91-1.91,10-.33,14.61,1.81,5.35,14.79,11.1,19.83,13.65h0a56.63,56.63,0,0,1,3.11-5.63c12.16-19.77,23.8-40.28,35.95-60-3.42-8.82-6.86-18.7-3.33-27.48,1.74-4.33,5-8,6.39-12.43,1.49-5,.39-10.42,2-15.34,2-6.28,7.86-10.4,13.35-14,6.56-4.36,10.06-9.21,16.61-13.57-7.61-8.08-20.45-10.1-27-19.07-5.66-7.78-4.88-18.31-4.39-27.91.4-8,0-16.86-4.36-23.24l-218.11,2,2,34.79-20.34,3.91v62.19c0,5.35,3,20.51-2.57,22.25-2.28.72-4.81.53-7,1.49-5.06,2.22-3.68,7.39-4.12,11.68a22.84,22.84,0,0,1-8,14.86c-2.44,2-5.31,3.5-7.41,5.85s-3.23,6-1.49,8.66c2.85,4.32,11.59,3.69,11.86,8.87.15,2.68-2.48,4.69-3.15,7.29-.79,3.07,1.3,6.12,3.59,8.32,5.67,5.45,5.4,9,2.5,11.68h0c-1.52,4.75,1.1,12.44,5.38,15,1.71,1,3.71,1.61,5.2,3,4,3.6,3.7,11.9,9,12.63,3.42.47,6-3,7.37-6.15s2.57-6.91,5.73-8.28c4.1-1.78,8.59,1.58,11.27,5.16s5.12,7.91,9.41,9.17c4.86,1.42,9.78-1.78,14.8-2.49,5.64-.8,11.16,1.57,16.58,3.31s11.75,2.73,16.48-.43c6.75-4.51,8.31-16.17,16.38-17,6.81-.73,11,7.13,16.91,10.6,10.76,6.34,19.2-2.42,25.8-9.54,7.64-8.25,15.35-15.62,11.15-28.21-.88-2.62-2.24-5.15-2.38-7.91-.23-4.77,3.66-9.21,8.32-10.21s9.7,1.1,12.79,4.73A19.33,19.33,0,0,1,1280.55,1153.72Z" fill="#ebecee" stroke="#fff" stroke-miterlimit="10" stroke-width="4.21"/><path d="M878.67,936.61c6.17-15.43-21.14-21.75-27.85-30-2.78-3.43-3.92-7.88-4.84-12.2-5.55-26-5.94-52.86-7.1-79.46-1-21.81-3.48-45.92-19.61-60.63-6.58-6-16-12.45-13.91-21.1.88-3.56,3.65-6.26,5.84-9.2,11.34-15.19,8.65-37.49,4.1-55.89h0c-2.65,2-5.49,3.47-8.75,3.36-5.11-.17-9.24-4.26-14.19-5.55-11.5-3-22.53,9.66-34.19,7.38-8.15-1.59-15.06-10.27-23-7.86-4.51,1.37-7.33,6-11.68,7.82-7.38,3.08-15.56-2.94-23.52-2.22-13,1.19-21.4,19.6-34.13,16.68-3-.68-5.76-2.59-8.85-2.54-9,.14-10,14.46-18,18.7-4.8,2.56-10.76.63-15.52-2s-9.38-6.1-14.8-6.61c-8-.76-17.49,4.57-23.15-1.08-1.93-1.94-2.76-4.75-4.61-6.77-4.88-5.34-14.57-2.26-18.24,4s-3.61,15.48-6.35,22.18C550.83,727,530.69,728.39,523.51,741c-2.75,4.84-3.22,10.79-6.32,15.41-4.58,6.79-14.26,9.82-16.6,17.68-2.69,9,6.2,17.87,5.38,27.24-.72,8.22-9.57,15.23-14.41,21.28-6.28,7.86-14.18,13.67-24.59,14.29-7.28.43-15.6-1.35-21.11,3.43-3.61,3.13-4.68,8-5.53,12.95l69.68-.89c54.48,34.84,112.52,83.66,167,118.5,6.51,4.16,13.11,8.4,18.21,14.21,3.71,4.24,6.76,9.41,11.85,11.82,3.25,1.54,7,1.75,10.36,2.95,4.61,1.62,8.37,5,12,8.2l18.76,16.79,1.65.47c0-.54,0-1.1,0-1.63,20.42-13.83,45.39-27.27,65.81-41.09l53.05-35.92C872.69,944,876.88,941.07,878.67,936.61Z" fill="#ebecee" stroke="#fff" stroke-miterlimit="10" stroke-width="4.21"/><path d="M649.72,769.63c-6.83,2.93-12.13-7.87-19.51-8.68-14.09-1.55-10.62,22.71-16.29,29.71-3.4,4.19-8.07,6.37-13.24,7.46a26.51,26.51,0,0,0-12.78,6c-7,5.54-12.44,13-20.38,17.06-10.64,5.34-23.38,3.29-35.08,5.5a28.77,28.77,0,0,0-16.05,8.92c-3.88,4.43-2.42,11.78-7.64,14.7-3.38,4.69,3.19,14.59,4,20.33s.54,12.7-4.39,15.75c-2.7,1.68-6.13,1.64-9.31,1.53-10.12-.35-20.27-.68-30.39-1-3.49-.1-7.22-.15-10.14,1.73-9.91,6.45.59,18.06-4.17,25.59-1.29,2-3.1,3.7-4,5.93-1.72,4.47.66,10.45-2.81,13.76-2.29,2.16-6.35,2.14-8,4.85-.87,1.41-.76,3.18-.65,4.84q1,13.88,2,27.73H363.17c-1.73-3.63-2.53-7.55-1.33-11.28,2.29-7.09,10.47-10.17,15.66-15.51s7.35-13.18,9.77-20.4c2.92-8.59,12-9,14.55-18.56,1.61-6,1.09-12.26,1.85-18.39s3.32-12.65,8.84-15.42c6-3,13.83-.75,19.35-4.56,5.15-3.56,5.71-10.41,6.89-16.91a2,2,0,0,1,.05-.24l.26-1.31c.83-4.12,2.05-8,5.1-10.6,5.54-4.82,13.92-3,21.25-3.45,10.49-.63,18.45-6.48,24.78-14.39,4.86-6.09,13.79-13.16,14.51-21.43.83-9.44-8.14-18.36-5.44-27.44,2.38-7.92,12.13-10.95,16.74-17.8,3.12-4.64,3.57-10.64,6.37-15.51,7.22-12.74,27.5-14.11,33-27.66,2.77-6.76,2.71-16,6.4-22.34s13.45-9.4,18.39-4c1.85,2,2.68,4.86,4.64,6.81,5.69,5.69,15.27.32,23.3,1.09,5.45.52,10.12,4,14.9,6.67s10.8,4.6,15.64,2c1.31,20.05-1.94,35.58,8.48,49.37,2.32,3.05,5,6,6.09,9.68S653.25,768.13,649.72,769.63Z" fill="#ebecee" stroke="#fff" stroke-miterlimit="10" stroke-width="4.21"/><path d="M219.69,531.65A47,47,0,0,0,185,546.14a49.68,49.68,0,0,0,0,69.79,47,47,0,0,0,34.73,14.48,49.19,49.19,0,0,0,15.78-2.52q-.16,26.72-11.18,38.9-11.19,12.35-36.21,12.34-30.62,0-46.74-14.15t-16.13-32.92a55.52,55.52,0,0,1,2.3-16q2.29-7.73,6.91-10.7,6.59-4.27,19.43-2.3-1.65-9.21-7.41-11.69t-8.4-2.14q4.62-6.24,4.78-12a91.75,91.75,0,0,0-.49-12q-11.87,10.54-19.43,27.82t-7.57,39q0,15.13,7.74,31.11t23.86,27q16.14,11,41.15,11,28.65,0,44.94-10.86t23.86-26.18a97,97,0,0,0,9.55-29.46,167.33,167.33,0,0,0,2-20.74V581a48.16,48.16,0,0,0-14.16-34.89A46.48,46.48,0,0,0,219.69,531.65Zm0,65.84a16.29,16.29,0,1,1,11.68-4.77A15.9,15.9,0,0,1,219.69,597.49Z" fill="#687a6e"/><path d="M833,457.9a25,25,0,1,0-17.67-7.33A24.14,24.14,0,0,0,833,457.9Z" fill="#e18e6e"/><path d="M833.33,482.28a46.63,46.63,0,0,0-34.4,14.48,49.68,49.68,0,0,0,0,69.79A46.63,46.63,0,0,0,833.33,581a48.28,48.28,0,0,0,16.13-2.7v19.16H317.79V367.06l-32.92,7.24V622.84q0,6.25,13.16,7.57H869.21q13.17-1.3,13.17-7.57V531.65a47.59,47.59,0,0,0-14.48-34.89Q853.41,482.27,833.33,482.28Zm0,66.16a16.79,16.79,0,0,1,0-33.57,16.73,16.73,0,0,1,12,4.93,16.33,16.33,0,0,1,0,23.71A16.73,16.73,0,0,1,833.33,548.44Z" fill="#687a6e"/><path d="M964.67,334.14h-24a65,65,0,0,1-13.33-1.48q-7.08-1.49-7.08-11.36a54.09,54.09,0,0,1,1.15-7.57q1.15-5.93,9.38-8.23c3.07-.87,6.8-.77,11.2.33a53.05,53.05,0,0,1,8.56,2.63q-3.3-7.56-9.88-10.37c-4.39-1.86-8-2.8-10.86-2.8q-12.84,0-19.1,6.42a36.37,36.37,0,0,0-8.89,16.3,75,75,0,0,0-1.91,16.13H885.67l-9.88,16.46h79Z" fill="#687a6e"/><path d="M931.75,604.08v-237l-32.92,7.24V604.08q0,14.8,8.73,21.39t20.74,6.42a45.8,45.8,0,0,0,22.06-5.76q10-5.6,12.67-14.81-6.25,3-18.77,3.62T931.75,604.08Z" fill="#687a6e"/><path d="M846,399.63l-6.23,6.58q4.77,4.31,6.07,8.1a6.45,6.45,0,0,1-2.69,1.72,6.7,6.7,0,0,1-3.43.42q-5.85-.88-5-7.76l-2.19-.33q-3.66,10.56-8.59,9.81a3.51,3.51,0,0,1-2.7-1.95,6.76,6.76,0,0,1-.49-4.18,11.58,11.58,0,0,1,1.08-3.42l-1.7-1.11q-5.76,6-6.62,11.64a10.2,10.2,0,0,0,.94,6.73A6,6,0,0,0,819,429a8,8,0,0,0,5.93-1.49,16.59,16.59,0,0,0,4.86-5.59,7.64,7.64,0,0,0,6.63,5.62,10.31,10.31,0,0,0,9-3.09,16.55,16.55,0,0,0,4.95-9.84,18.28,18.28,0,0,0-.5-7.86A20,20,0,0,0,846,399.63Z" fill="#fff"/><path d="M213.89,451.37,243,451l6.76-7.14,5.55.25c-.35-.4-.69-.8-1.08-1.18a24.56,24.56,0,0,0-34.77,0A24.34,24.34,0,0,0,213.89,451.37Z" fill="#e18e6e"/><path d="M253.15,454.49l8,1.69a23.1,23.1,0,0,0-5-11.16Z" fill="#e18e6e"/><path d="M261.14,456.27l-8.52,2,5.06,9.75-6.12.61-7.45-5.93L213,465.29l2.37,7.11a25.29,25.29,0,0,0,4.08,5.3,24.61,24.61,0,0,0,42-17.39A26.64,26.64,0,0,0,261.14,456.27Z" fill="#e18e6e"/><path d="M196.78,467.15l-21.44.35c-3.68.63-11.45-7.15-11.45-7.15,2.8-3.71,8-6.6,11-8a10.91,10.91,0,0,1,4.37-1.08l18.81-.72,5.29-9.82a24.61,24.61,0,1,0,1.44,38Z" fill="#e18e6e"/></g></svg>