<svg xmlns="http://www.w3.org/2000/svg" viewBox="0 0 29.02 58.08"><defs><style>.cls-1{fill:#10a89f;}</style></defs><g id="Layer_2" data-name="Layer 2"><g id="تونس"><path class="cls-1" d="M29,34.36l-7.31-5.53c-1.28-1-2.71-2.34-2.28-3.89.6-2.18,4.07-2,5.29-3.93,1.1-1.7-.21-3.9-1.56-5.41s-2.91-3.38-2.29-5.31c.51-1.55,2.37-3.07,1.43-4.42s-3.4.14-5.1-.43S15.33,2.15,13.92.82C12.14-.88,9.16.34,7.31,2a33.15,33.15,0,0,1-3,2.53C6.13,12,7.15,21.07,2.53,27.26c-.9,1.21-2,2.33-2.4,3.79-.89,3.57,3,6.22,5.73,8.7,5,4.59,6.86,11.4,7.62,18.33a5.93,5.93,0,0,0,3.93-4c.44-1.89.28-3.88.55-5.81s1.11-4,2.85-4.83c1.37-.69,3-.53,4.47-1a5.57,5.57,0,0,0,3-7.66Z"/></g></g></svg>
